<svg width="100" height="100" xmlns="http://www.w3.org/2000/svg">

 <g>
  <title>background</title>
  <rect fill="none" id="canvas_background" height="402" width="582" y="-1" x="-1"/>
 </g>
 <g>
  <title>Layer 1</title>
  <path id="svg_2" fill="#d4aaff" d="m49.773,4.459c-25.352,0 -45.977,20.625 -45.977,45.977s20.625,45.978 45.977,45.978c25.353,0 45.979,-20.625 45.979,-45.978s-20.626,-45.977 -45.979,-45.977zm0,89.955c-24.249,0 -43.977,-19.728 -43.977,-43.978c0,-24.249 19.728,-43.977 43.977,-43.977c24.25,0 43.979,19.728 43.979,43.977c0,24.25 -19.729,43.978 -43.979,43.978z"/>
  <path id="svg_3" fill="#d4aaff" d="m49.773,20.952c-16.258,0 -29.484,13.228 -29.484,29.486c0,12.448 7.877,23.615 19.606,27.788l0.318,0.108c0.267,0.086 0.545,0.13 0.825,0.13c1.476,0 2.677,-1.2 2.677,-2.675c0,-0.025 -0.001,-0.051 -0.002,-0.076c0.001,-0.019 0.002,-0.038 0.002,-0.058l0,-4.952c0,-0.3 -0.135,-0.585 -0.368,-0.775c-0.232,-0.189 -0.534,-0.266 -0.833,-0.205c-0.886,0.182 -2.201,0.398 -3.432,0.398c-1.092,0 -1.682,-0.174 -1.985,-0.32c-1.663,-0.8 -2.48,-1.762 -3.363,-3.958c-0.65,-1.624 -1.73,-2.667 -2.633,-3.351c0.438,0.068 0.967,0.25 1.359,0.7c0.297,0.34 0.612,0.779 0.945,1.243c1.288,1.793 3.081,4.285 6.209,3.969c1.398,-0.146 2.571,-0.37 3.487,-0.667c0.372,-0.121 0.64,-0.447 0.685,-0.835c0.151,-1.291 0.54,-2.272 1.156,-2.917c0.256,-0.268 0.344,-0.656 0.226,-1.008c-0.117,-0.352 -0.419,-0.61 -0.785,-0.67c-7.892,-1.304 -11.893,-5.496 -11.893,-12.459c0,-3.272 0.897,-5.961 2.666,-7.993c0.198,-0.228 0.283,-0.533 0.23,-0.831c-0.519,-2.943 -0.447,-5.336 0.17,-6.236c0.487,-0.094 2.402,-0.144 6.504,2.745c0.232,0.164 0.524,0.222 0.801,0.157c2.009,-0.462 4.29,-0.705 6.779,-0.72c0.045,0 0.088,-0.003 0.131,-0.009l0.001,0.008l0.065,-0.001c0.022,0.001 0.045,0.002 0.067,0.002c2.489,0.016 4.771,0.258 6.779,0.72c0.275,0.064 0.566,0.007 0.801,-0.157c4.118,-2.9 6.066,-2.815 6.503,-2.748c0.619,0.896 0.691,3.292 0.172,6.24c-0.053,0.297 0.032,0.603 0.23,0.831c1.77,2.029 2.666,4.718 2.666,7.992c0,6.963 -4.002,11.155 -11.894,12.459c-0.366,0.061 -0.668,0.319 -0.785,0.67c-0.118,0.352 -0.03,0.74 0.226,1.008c1.229,1.283 1.229,3.574 1.229,4.327l0,7.475c0,1.475 1.2,2.675 2.676,2.675c0.215,0 0.43,-0.026 0.633,-0.076c0.042,-0.01 0.203,-0.055 0.268,-0.076c11.874,-4.101 19.852,-15.303 19.852,-27.872c0,-16.259 -13.228,-29.486 -29.487,-29.486zm9.013,55.46l-0.119,0.033c-0.398,0.099 -0.834,-0.229 -0.834,-0.656l0,-7.475c0,-0.737 0,-2.639 -0.828,-4.325c7.895,-1.768 12.053,-6.631 12.053,-14.14c0,-3.581 -0.958,-6.584 -2.85,-8.937c0.44,-2.745 0.591,-6.136 -0.911,-7.674c-0.058,-0.058 -0.121,-0.109 -0.19,-0.152c-0.39,-0.24 -2.558,-1.444 -8.407,2.561c-2.042,-0.433 -4.32,-0.66 -6.781,-0.675l0,0.008c-0.048,-0.006 -0.097,-0.01 -0.145,-0.01l-0.138,-0.002c-0.032,0 -0.064,0.001 -0.096,0.004c-2.426,0.021 -4.674,0.247 -6.691,0.674c-5.851,-4.004 -8.016,-2.801 -8.406,-2.561c-0.069,0.043 -0.133,0.094 -0.19,0.153c-1.502,1.539 -1.352,4.93 -0.911,7.673c-1.892,2.354 -2.85,5.359 -2.85,8.938c0,7.508 4.158,12.372 12.052,14.139c-0.29,0.591 -0.505,1.264 -0.643,2.014c-0.57,0.143 -1.381,0.298 -2.492,0.414c-1.978,0.203 -3.191,-1.496 -4.378,-3.147c-0.361,-0.504 -0.704,-0.98 -1.063,-1.392c-0.801,-0.917 -1.994,-1.423 -3.36,-1.423c-0.858,0 -1.953,0.216 -2.45,0.823c-0.231,0.282 -0.325,0.639 -0.257,0.978c0.113,0.572 0.576,0.875 1.162,1.257c0.854,0.558 2.145,1.4 2.817,3.077c1.061,2.64 2.24,3.999 4.352,5.015c0.724,0.349 1.656,0.518 2.853,0.518c0.901,0 1.827,-0.099 2.633,-0.224l0,3.708c-0.005,0.061 -0.005,0.123 0,0.183c0,0.443 -0.462,0.777 -0.888,0.642l-0.269,-0.092c-10.928,-3.888 -18.271,-14.297 -18.271,-25.901c0,-15.156 12.329,-27.486 27.484,-27.486c15.156,0 27.486,12.33 27.486,27.486c0,11.717 -7.436,22.159 -18.474,25.974z"/>
 </g>
</svg>