<svg width="100" height="100" xmlns="http://www.w3.org/2000/svg">

 <g>
  <title>background</title>
  <rect fill="none" id="canvas_background" height="402" width="582" y="-1" x="-1"/>
 </g>
 <g>
  <title>Layer 1</title>
  <path id="svg_2" fill="#d4aaff" d="m49.74,95.866c25.352,0 45.977,-20.625 45.977,-45.978s-20.625,-45.977 -45.977,-45.977c-25.353,0 -45.979,20.625 -45.979,45.978s20.626,45.977 45.979,45.977zm0,-89.955c24.249,0 43.977,19.728 43.977,43.978s-19.728,43.977 -43.977,43.977c-24.25,0 -43.979,-19.728 -43.979,-43.978s19.729,-43.977 43.979,-43.977z"/>
  <path id="svg_3" fill="#d4aaff" d="m37.716734,39.772l-9.115,0c-0.552,0 -1,0.448 -1,1l0,29.446c0,0.552 0.448,1 1,1l9.115,0c0.552,0 1,-0.448 1,-1l0,-29.446c0,-0.552 -0.448,-1 -1,-1zm-1,29.446l-7.115,0l0,-27.446l7.115,0l0,27.446z"/>
  <path id="svg_4" fill="#d4aaff" d="m43.406,71.218l8.742,0c0.552,0 1,-0.448 1,-1l0,-15.457c0,-2.557 0.79,-5.605 4.553,-5.605c0.98,0 3.963,0 3.963,5.605l0,15.458c0,0.552 0.448,1 1,1l9.07,0c0.552,0 1,-0.448 1,-1l0,-18.645c0,-7.953 -4.379,-12.701 -11.713,-12.701c-3.765,0 -6.324,1.602 -7.873,3.061l0,-1.161c0,-0.552 -0.448,-1 -1,-1l-8.742,0c-0.552,0 -1,0.448 -1,1l0,29.446c0,0.552 0.448,0.999 1,0.999zm1,-29.446l6.742,0l0,2.965c0,0.458 0.311,0.857 0.755,0.969c0.446,0.115 0.908,-0.091 1.125,-0.494c0.023,-0.043 2.41,-4.34 7.993,-4.34c6.173,0 9.713,3.9 9.713,10.701l0,17.644l-7.07,0l0,-14.456c0,-6.617 -3.736,-7.605 -5.963,-7.605c-4.104,0 -6.553,2.843 -6.553,7.605l0,14.458l-6.742,0l0,-27.447z"/>
  <path id="svg_5" fill="#d4aaff" d="m32.977,37.916c3.523,0 6.39,-2.886 6.39,-6.433c0,-3.547 -2.866,-6.433 -6.39,-6.433s-6.39,2.886 -6.39,6.433c0,3.547 2.866,6.433 6.39,6.433zm0,-10.866c2.42,0 4.39,1.988 4.39,4.433s-1.969,4.433 -4.39,4.433s-4.39,-1.989 -4.39,-4.433s1.969,-4.433 4.39,-4.433z"/>
 </g>
</svg>