<svg width="100" height="100" xmlns="http://www.w3.org/2000/svg">

 <g>
  <title>background</title>
  <rect fill="none" id="canvas_background" height="402" width="582" y="-1" x="-1"/>
 </g>
 <g>
  <title>Layer 1</title>
  <path fill="#d4aaff" id="svg_2" d="m51.7,4c-25.4,0 -46,20.6 -46,46s20.6,46 46,46c25.4,0 46,-20.6 46,-46c0,-25.4 -20.6,-46 -46,-46zm0,90c-24.3,0 -44,-19.7 -44,-44c0,-24.3 19.7,-44 44,-44c24.3,0 44,19.7 44,44c0,24.3 -19.7,44 -44,44z"/>
  <path fill="#d4aaff" id="svg_3" d="m82.3,31.3c0,-0.1 0,-0.2 0,-0.2c0,-0.1 -0.1,-0.1 -0.1,-0.2c0,0 0,-0.1 -0.1,-0.1c0,0 0,0 0,0c-0.1,-0.1 -0.2,-0.1 -0.3,-0.2c0,0 0,0 -0.1,0c0,0 0,0 0,0c-0.1,0 -0.2,-0.1 -0.3,-0.1c0,0 0,0 0,0l-59.5,0c0,0 0,0 0,0c-0.1,0 -0.3,0 -0.4,0.1c0,0 0,0 0,0c0,0 0,0 -0.1,0c-0.1,0 -0.2,0.1 -0.3,0.2c0,0 0,0 0,0c0,0 0,0.1 -0.1,0.1c-0.1,0.1 -0.1,0.1 -0.1,0.2c0,0.1 0,0.2 0,0.2c0,0 0,0.1 0,0.1l0,37.4c0,0.6 0.4,1 1,1l59.3,0c0.6,0 1,-0.4 1,-1l0,-37.3c0.1,-0.1 0.1,-0.1 0.1,-0.2zm-3.5,1.2l-27.2,26.3l-27.2,-26.3l54.4,0zm-55.9,35.4l0,-34l28,27.1c0.2,0.2 0.4,0.3 0.7,0.3s0.5,-0.1 0.7,-0.3l28,-27.1l0,34l-57.4,0z"/>
 </g>
</svg>